<svg width="29" height="28" viewBox="0 0 29 28" fill="none" xmlns="http://www.w3.org/2000/svg">
<g clip-path="url(#clip0_16_117)">
<path d="M27 3.50001C25.8828 4.28807 24.6458 4.89081 23.3367 5.28501C22.634 4.47711 21.7002 3.90449 20.6615 3.64459C19.6229 3.3847 18.5294 3.45007 17.5291 3.83188C16.5288 4.21368 15.6698 4.89348 15.0685 5.77935C14.4671 6.66522 14.1523 7.7144 14.1667 8.78501V9.95168C12.1164 10.0048 10.0848 9.55013 8.25284 8.62803C6.42086 7.70594 4.84536 6.34509 3.66666 4.66668C3.66666 4.66668 -1.00001 15.1667 9.49999 19.8333C7.09728 21.4643 4.23501 22.2821 1.33333 22.1667C11.8333 28 24.6667 22.1667 24.6667 8.75001C24.6656 8.42504 24.6343 8.10087 24.5733 7.78168C25.764 6.60742 26.6043 5.12484 27 3.50001Z" stroke="#0D121E" stroke-width="2.33333" stroke-linecap="round" stroke-linejoin="round"/>
</g>
<defs>
<clipPath id="clip0_16_117">
<rect width="28" height="28" fill="white" transform="translate(0.166672)"/>
</clipPath>
</defs>
</svg>
